<svg version="1" xmlns="http://www.w3.org/2000/svg" width="666.667" height="666.667" viewBox="0 0 500.000000 500.000000"><path d="M91.2 1.1c-5.6.4-12.8 1.3-16 1.9-38 7.5-64.7 34.2-72.1 72C.5 88.3 0 111.9 0 250s.5 161.7 3.1 175c7.3 37.7 34.2 64.6 71.9 71.9 13.3 2.6 36.9 3.1 175 3.1s161.7-.5 175-3.1c37.7-7.3 64.6-34.2 71.9-71.9 2.6-13.3 3.1-36.9 3.1-175s-.5-161.7-3.1-175c-6.5-33.4-28.6-58.8-59.9-68.8-9.3-3-15.8-4.1-30-5.2-14.9-1.1-300.7-1.1-315.8.1zM108 194v38h85v-76h41v190h-41v-79h-85v79H68V156h40v38zm243.1 21c23.8 32.4 44 58.9 44.7 59 .9 0 1.2-12.4 1.2-59v-59h38v190h-32.8l-43.7-59.3c-24-32.5-44.3-59.3-45.1-59.5-1.2-.3-1.4 8-1.4 59.2V346h-38V156h33.6l43.5 59z"/></svg>