<svg version="1" xmlns="http://www.w3.org/2000/svg" width="666.667" height="666.667" viewBox="0 0 500.000000 500.000000"><path d="M95 1.1C77.2 2.8 66.6 5.7 53 12.5c-18.6 9.3-32.3 23.5-41.6 43C6 66.8 4 73.7 1.8 87.5c-1.9 11.6-1.9 313.4 0 325 2.2 13.8 4.2 20.7 9.6 32 9.8 20.5 23.6 34.3 44.1 44.1 11.3 5.4 18.2 7.4 32 9.6 11.6 1.9 313.4 1.9 325 0 13.8-2.2 20.7-4.2 32-9.6 20.5-9.8 34.3-23.6 44.1-44.1 5.4-11.3 7.4-18.2 9.6-32 1.9-11.6 1.9-313.4 0-325-2.2-13.8-4.2-20.7-9.6-32C474.5 26 450 8.3 414 1.9 406.3.5 108.8-.3 95 1.1zm13 193.4V233l42.8-.2 42.7-.3.3-38.3.2-38.2h39v190h-39l-.2-39.8-.3-39.7-42.7-.3-42.8-.2v80H68V156h40v38.5zM350.9 215c23.9 32.5 44.1 59 44.8 59 1.1 0 1.3-11.2 1.3-59v-59h38v190h-32.5l-43.9-59.5c-24.1-32.7-44.4-59.5-45.2-59.5-1.2 0-1.4 9.2-1.4 59.5V346h-38V156h16.8l16.7.1 43.4 58.9z"/></svg>